<?xml version="1.0" encoding="utf-8"?>
<!-- Generator: Adobe Illustrator 24.1.0, SVG Export Plug-In . SVG Version: 6.00 Build 0)  -->
<svg version="1.1" id="Warstwa_1" xmlns="http://www.w3.org/2000/svg" xmlns:xlink="http://www.w3.org/1999/xlink" x="0px" y="0px"
	 viewBox="0 0 1362.1 343.2" style="enable-background:new 0 0 1362.1 343.2;" xml:space="preserve">
<style type="text/css">
	.st0{fill-rule:evenodd;clip-rule:evenodd;fill:#F4D303;}
	.st1{fill-rule:evenodd;clip-rule:evenodd;fill:#FFFFFF;stroke:#FFFFFF;stroke-width:0.216;stroke-miterlimit:10;}
	.st2{fill-rule:evenodd;clip-rule:evenodd;}
	.st3{fill:none;stroke:#000000;stroke-width:0.216;stroke-miterlimit:10;}
</style>
<g>
	<path class="st0" d="M174.9,39c77.9,0,141,60.1,141,134.3c0,61.9-44.2,114.1-104.1,129.6L176.5,273l-33.1,31.1
		C80.7,290.4,33.8,237,33.8,173.3C33.8,99.1,97,39,174.9,39z"/>
	<path class="st1" d="M173.9,277.3c59.1,0,107.1-41.3,107.1-92c0-50.5-48-91.8-107.1-91.8c-58.9,0-107.1,41.3-107.1,91.8
		C66.8,236,115,277.3,173.9,277.3z"/>
	<g>
		<path class="st2" d="M241.7,67.6c38.2,22.7,64,64.6,64,112.4c0,47.8-25.8,89.7-64,112.4v-112l12.7-17.4l-12.7-13.7v-6.1l5.9,6.5
			l5.1-20.8l-11,1.2L241.7,67.6L241.7,67.6z M209.9,53.9c11.4,3.1,22.1,7.8,31.9,13.7v62.6l-11,1.2l11,11.9v6.1l-25.1-27h-6.7
			L209.9,53.9L209.9,53.9z M241.7,292.4c-9.8,5.9-20.4,10.6-31.9,13.7v-58.1l7.4-34.1l24.5-33.5V292.4L241.7,292.4z M209.9,162.4
			v-7.8h10.6l3.9,7.8H209.9z M176.3,49.2c11.7,0.2,22.9,1.8,33.5,4.7v68.5h-23.9l-9.6,10L176.3,49.2L176.3,49.2z M209.9,306.1
			c-0.2,0-0.4,0.2-0.8,0.2l-32.7-29v-4.1h0.2l9.4-14.5h21.7l2.2-10.6V306.1L209.9,306.1z M209.9,154.7v7.8h-4.5l-9.8,4.9l1.8-12.7
			H209.9L209.9,154.7z M176.3,231.9v-32.1h8.2l4.5,4.1l-10,11.2v13.9h15.7v2.9L176.3,231.9L176.3,231.9z M176.3,194.9v-23.5h2.5
			v23.5H176.3z M174.9,49.2c0.4,0,1,0,1.4,0v83.2l-0.4,0.6l-9.2-10.6H143V53.1C153.2,50.6,163.9,49.2,174.9,49.2L174.9,49.2z
			 M176.3,277.3l-30.7,30.3c-0.8-0.2-1.8-0.4-2.7-0.6v-61.1l2.9,12.9h21.3l9.2,14.5L176.3,277.3L176.3,277.3z M176.3,171.4v23.5
			h-3.1v-23.5H176.3L176.3,171.4z M176.3,199.8v32.1h-18v-2.9h14.9v-13.9l-10-11l4.5-4.3L176.3,199.8L176.3,199.8z M143,162.4v-7.8
			h0.6h12.3l1.4,12.7l-11.2-4.9H143z M143,306.9c-11.9-3.1-23.1-7.6-33.3-13.5V178.6l26.2,35.6l7.2,31.7L143,306.9L143,306.9z
			 M109.7,66.5c10.2-5.9,21.5-10.4,33.3-13.5v69.3h-6.3l-27,28.4v-5.5l11.2-12.1l-11.2-1.4L109.7,66.5L109.7,66.5z M143,154.7v7.8
			h-14.3l4.5-7.8H143z M109.7,293.5c-39.2-22.7-65.6-65-65.6-113.5s26.4-90.8,65.6-113.5v65.2l-11.2-1.2l5.1,21.3l6.1-6.5v5.5
			L98.2,163l11.4,15.5V293.5z"/>
		<path class="st3" d="M174.9,49.2c72.2,0,130.8,58.5,130.8,130.8c0,60.5-40.9,111.2-96.7,126.3l-32.7-29l-30.7,30.3
			C87.6,294.3,44.1,242.1,44.1,180C44.1,107.6,102.7,49.2,174.9,49.2L174.9,49.2z M103.6,151.8l17.4-18.6l-22.5-2.7L103.6,151.8
			L103.6,151.8z M247.7,149.7l-17-18.4l22.1-2.5L247.7,149.7L247.7,149.7z M158.3,229.1h14.9v-13.9l-10-11l4.5-4.3h16.8l4.5,4.1
			l-10,11.2v13.9h15.7v2.9h-36.4V229.1L158.3,229.1z M173.3,194.9h5.5v-23.5h-5.5V194.9L173.3,194.9z M133.2,154.7h10.4h12.3
			l1.4,12.7l-11.2-4.9h-17.4L133.2,154.7L133.2,154.7z M220.5,154.7h-23.1l-1.8,12.7l9.8-4.9h19L220.5,154.7L220.5,154.7z
			 M136.7,122.4h30l9.2,10.6l10-10.6h30.7l37.8,40.7l-37.2,50.9l-9.6,44.8h-21.7l-9.4,14.5l-9.4-14.5h-21.3l-10-44.6L98.2,163
			L136.7,122.4z"/>
	</g>
</g>
<g>
	<path d="M401.5,229.3c-6.1-1.1-11.2-2.6-15.4-4.6v-24.4c4.8,2.2,10.1,4,15.9,5.4c5.8,1.4,11.1,2,16.1,2c5.7,0,9.7-0.5,12.2-1.5
		c2.5-1,3.7-3,3.7-5.9c0-1.9-0.6-3.4-1.8-4.6c-1.2-1.2-3-2.3-5.3-3.1c-2.3-0.9-6-2.1-11-3.7c-1.7-0.4-2.9-0.8-3.8-1.1
		c-6.9-2.2-12.4-4.6-16.3-7.2c-3.9-2.6-6.8-5.8-8.5-9.5c-1.7-3.7-2.6-8.4-2.6-13.9c0-10,3.6-17.5,10.7-22.7
		c7.1-5.2,17.6-7.8,31.5-7.8c5.4,0,11,0.4,16.9,1.3c5.9,0.9,10.8,2,14.7,3.2v24.6c-9.2-3.7-18.2-5.5-26.9-5.5
		c-5.6,0-9.7,0.4-12.5,1.3c-2.8,0.8-4.2,2.7-4.2,5.5c0,1.8,0.6,3.2,1.7,4.2c1.2,1,2.9,2,5.3,2.8c2.4,0.8,6.4,1.9,12,3.4
		c8.1,2.2,14.3,4.9,18.6,7.9c4.4,3.1,7.4,6.6,9,10.6c1.7,4,2.5,8.8,2.5,14.5c0,9.4-3.6,16.9-10.9,22.4c-7.3,5.5-18,8.3-32.2,8.3
		C414.1,230.9,407.6,230.4,401.5,229.3z"/>
	<path d="M482.6,217.4c-9.7-9-14.5-21.7-14.5-38.3c0-17.1,4.7-30.2,14.2-39.2c9.5-9,23.5-13.5,42.1-13.5c6,0,11.4,0.4,16.3,1.3
		c4.9,0.9,9.8,2.2,14.7,4v25.8c-9-4-18.7-6-29-6c-9.7,0-16.8,2.2-21.3,6.6s-6.8,11.4-6.8,20.9c0,9.2,2.4,16,7.2,20.2
		c4.8,4.2,11.9,6.4,21.3,6.4c10.4,0,20-1.9,29-5.8v26c-9.8,3.4-20.1,5-31.2,5C506.2,230.9,492.2,226.4,482.6,217.4z"/>
	<path d="M566.8,128h29.6v37.8h34.9V128h29.6v101.4h-29.6v-37.8h-34.9v37.8h-29.6V128z"/>
	<path d="M710.8,128h31.3L781,229.3h-30.8l-8.5-21.6h-30.5l-8.3,21.6h-30.8L710.8,128z M737.7,186.5l-11.3-29.7L715,186.5H737.7z"/>
	<path d="M792,128h52.7c12,0,21,3.3,27.1,9.8c6.1,6.5,9.1,15.3,9.1,26.3c0,6.7-1.7,12.7-5,17.9c-3.4,5.2-7.9,9.2-13.7,12
		c1.2,0.9,2.1,2,3,3.3c0.8,1.3,1.8,3.1,2.8,5.5l11.6,26.6h-30.8l-10.7-24.4c-0.8-1.9-1.9-3.2-3.1-4c-1.2-0.8-2.9-1.2-5.1-1.2h-8.3
		v29.6H792V128z M837.1,177.1c4.3,0,7.6-1.1,10-3.4c2.4-2.3,3.5-5.5,3.5-9.7c0-8.9-4.2-13.4-12.6-13.4h-16.5v26.4L837.1,177.1
		L837.1,177.1z"/>
	<path d="M891.9,128h28.8l25.2,51.5l25-51.5h28.6v101.4H970v-50.7L953.8,212h-15.9l-16.4-33.4v50.7h-29.6V128z"/>
	<path d="M1049.4,128h31.3l38.9,101.4h-30.8l-8.5-21.6h-30.5l-8.3,21.6h-30.8L1049.4,128z M1076.4,186.5l-11.3-29.7l-11.3,29.7
		H1076.4z"/>
	<path d="M1133.3,217.4c-9.7-9-14.5-21.7-14.5-38.3c0-17.1,4.7-30.2,14.2-39.2c9.5-9,23.5-13.5,42.1-13.5c6,0,11.4,0.4,16.3,1.3
		c4.9,0.9,9.8,2.2,14.7,4v25.8c-9-4-18.7-6-29-6c-9.7,0-16.8,2.2-21.3,6.6c-4.6,4.4-6.8,11.4-6.8,20.9c0,9.2,2.4,16,7.2,20.2
		c4.8,4.2,11.9,6.4,21.3,6.4c10.4,0,20-1.9,29-5.8v26c-9.8,3.4-20.1,5-31.2,5C1157,230.9,1143,226.4,1133.3,217.4z"/>
	<path d="M1217.5,128h29.6v37.8h34.9V128h29.6v101.4h-29.6v-37.8h-34.9v37.8h-29.6V128z"/>
</g>
</svg>
